<svg id="Capa_1" enable-background="new 0 0 512 512" height="512" viewBox="0 0 512 512" width="512" xmlns="http://www.w3.org/2000/svg"><g><path d="m504.273 403.695h-125.57c-15.602 17.262-33.897 32.042-54.226 43.676h179.796c4.268 0 7.727-3.459 7.727-7.727v-28.221c0-4.268-3.46-7.728-7.727-7.728z" fill="#3f6d8e"/><path d="m446.008 403.695h-67.305c-15.602 17.262-33.897 32.042-54.226 43.676h67.305c20.329-11.634 38.624-26.414 54.226-43.676z" fill="#365e7d"/><circle cx="220.344" cy="256" fill="#ecf4ff" r="220.344"/><path d="m45.439 256c0-114.021 86.607-207.812 197.625-219.185-7.469-.765-15.048-1.159-22.72-1.159-121.693 0-220.344 98.651-220.344 220.344s98.651 220.344 220.344 220.344c7.671 0 15.251-.394 22.72-1.159-111.018-11.373-197.625-105.164-197.625-219.185z" fill="#ddeafb"/><circle cx="220.344" cy="256" fill="#ddeafb" r="184.432"/><path d="m81.351 256c0-94.166 70.574-171.841 161.713-183.038-7.446-.915-15.026-1.394-22.72-1.394-101.859 0-184.432 82.573-184.432 184.432s82.573 184.432 184.432 184.432c7.693 0 15.274-.479 22.72-1.394-91.14-11.197-161.713-88.872-161.713-183.038z" fill="#bed8fb"/><g fill="#9dc6fb"><path d="m171.698 162.302h97.18l2.581-2.376c.002-.165.013-.328.013-.493 0-28.237-22.891-51.128-51.128-51.128s-51.128 22.891-51.128 51.128c0 .165.011.328.012.493z"/><path d="m271.46 352.074-3.783-2.45h-92.771l-5.677 2.45c-.002.165-.012.328-.012.493 0 28.237 22.891 51.128 51.128 51.128s51.128-22.891 51.128-51.128c-.001-.165-.012-.328-.013-.493z"/><path d="m127.057 303.952v-95.292l-2.787-3.776c-.165-.002-.328-.012-.493-.012-28.237 0-51.128 22.891-51.128 51.128s22.891 51.128 51.128 51.128c.165 0 .328-.011.493-.012z"/><path d="m316.911 204.872c-.165 0-.328.011-.493.012l-2.898 2.574v95.978l2.898 3.679c.165.002.328.012.493.012 28.237 0 51.128-22.891 51.128-51.128 0-28.236-22.891-51.127-51.128-51.127z"/></g><circle cx="220.344" cy="256" fill="#ecf4ff" r="18.039"/><path d="m220.344 364.811c18.477 0 35.875-4.611 51.116-12.737-.266-28.009-23.044-50.635-51.116-50.635s-50.85 22.626-51.115 50.635c15.24 8.126 32.638 12.737 51.115 12.737z" fill="#3f6d8e"/><path d="m179.325 322.064c-6.249 8.394-9.99 18.766-10.097 30.01 15.241 8.126 32.638 12.737 51.116 12.737 7.789 0 15.383-.829 22.707-2.385-25.814-5.488-48.24-20.126-63.726-40.362z" fill="#365e7d"/><path d="m220.344 147.189c-18.477 0-35.875 4.611-51.115 12.737.266 28.009 23.044 50.635 51.115 50.635 28.072 0 50.85-22.626 51.116-50.635-15.241-8.126-32.639-12.737-51.116-12.737z" fill="#3f6d8e"/><path d="m243.051 149.574c-7.325-1.557-14.919-2.385-22.707-2.385-18.477 0-35.875 4.611-51.116 12.737.107 11.244 3.848 21.617 10.097 30.01 15.486-20.236 37.912-34.875 63.726-40.362z" fill="#365e7d"/><path d="m124.27 204.884c-8.126 15.24-12.737 32.638-12.737 51.115s4.611 35.875 12.737 51.116c28.009-.266 50.635-23.044 50.635-51.116 0-28.071-22.626-50.849-50.635-51.115z" fill="#3f6d8e"/><path d="m156.972 256c0-11.735 1.865-23.033 5.303-33.622-9.272-10.603-22.845-17.35-38.005-17.494-8.126 15.24-12.737 32.638-12.737 51.116 0 18.477 4.611 35.875 12.737 51.116 15.159-.144 28.733-6.891 38.005-17.494-3.438-10.589-5.303-21.887-5.303-33.622z" fill="#365e7d"/><path d="m329.155 256c0-18.477-4.611-35.875-12.737-51.115-28.009.266-50.635 23.044-50.635 51.115 0 28.072 22.626 50.85 50.635 51.116 8.125-15.241 12.737-32.639 12.737-51.116z" fill="#3f6d8e"/></g></svg>